<svg width="17" height="16" viewBox="0 0 17 16" fill="none" xmlns="http://www.w3.org/2000/svg">
<g id="linkedin 1">
<path id="Vector" d="M5.51584 6.00009C5.51568 6.00009 5.51596 6.00009 5.51584 6.00009H2.84136C2.65684 5.99996 2.50722 6.14905 2.5071 6.33301C2.5071 6.33289 2.5071 6.33317 2.5071 6.33301V14.3334C2.50697 14.5174 2.65648 14.6666 2.84095 14.6668C2.84083 14.6668 2.84111 14.6668 2.84095 14.6668H5.51543C5.69994 14.6669 5.84957 14.5178 5.84969 14.3338C5.84969 14.3337 5.84969 14.3339 5.84969 14.3338V6.33342C5.84981 6.14942 5.70031 6.00021 5.51584 6.00009ZM5.18117 14.0001H3.17562V6.66675H5.18117V14.0001ZM12.5349 6.00009C11.8096 6.00013 11.1047 6.23881 10.5293 6.67912V6.33342C10.5294 6.14942 10.3799 6.00021 10.1955 6.00009C10.1953 6.00009 10.1956 6.00009 10.1955 6.00009H7.52099C7.33647 5.99996 7.18685 6.14905 7.18673 6.33301C7.18673 6.33289 7.18673 6.33317 7.18673 6.33301V14.3334C7.1866 14.5174 7.33611 14.6666 7.52062 14.6668C7.5205 14.6668 7.52074 14.6668 7.52062 14.6668H10.1951C10.3796 14.6669 10.5292 14.5178 10.5293 14.3338C10.5293 14.3337 10.5293 14.3339 10.5293 14.3338V10.6668C10.5293 10.1145 10.9783 9.66675 11.5321 9.66675C12.0859 9.66675 12.5349 10.1145 12.5349 10.6668V14.3334C12.5348 14.5174 12.6843 14.6666 12.8688 14.6668C12.8686 14.6668 12.8689 14.6668 12.8688 14.6668H15.5432C15.7277 14.6669 15.8773 14.5178 15.8775 14.3338C15.8775 14.3337 15.8775 14.3339 15.8775 14.3338V9.33342C15.8753 7.49337 14.38 6.00224 12.5349 6.00009ZM15.2089 14.0001H13.2034V10.6668C13.2034 9.74626 12.4551 9.00009 11.5321 9.00009C10.609 9.00009 9.8608 9.74626 9.8608 10.6668V14.0001H7.85524V6.66675H9.8608V7.46884C9.8608 7.61048 9.95065 7.73662 10.0848 7.78329C10.2186 7.83138 10.3682 7.78862 10.4562 7.67717C11.3671 6.52596 13.0414 6.32915 14.1958 7.23755C14.8388 7.74358 15.2125 8.51656 15.2089 9.33342V14.0001ZM4.4244 1.33464C4.34577 1.32915 4.26685 1.32874 4.18819 1.33342C3.17921 1.26469 2.30541 2.02466 2.23649 3.03085C2.23372 3.07133 2.23233 3.11186 2.23225 3.15243C2.22356 4.15007 3.0275 4.96582 4.02791 4.97449C4.06876 4.97486 4.10956 4.9738 4.15032 4.9714H4.16925C5.17632 5.04167 6.04979 4.28451 6.12025 3.28024C6.19072 2.27596 5.43146 1.40491 4.4244 1.33464ZM4.4013 4.30664C4.3241 4.31372 4.24633 4.31311 4.16925 4.30473H4.15032C3.51114 4.35372 2.9532 3.87675 2.90407 3.23934C2.85494 2.60197 3.33324 2.04554 3.97242 1.99655C4.04431 1.99105 4.11654 1.99223 4.18819 2.00009C4.82688 1.94141 5.39237 2.41016 5.45125 3.04708C5.51009 3.68405 5.04003 4.24797 4.4013 4.30664Z" fill="white"/>
</g>
</svg>
