<svg width="50" height="34" viewBox="0 0 50 34" fill="none" xmlns="http://www.w3.org/2000/svg">
<g id="Comma">
<path id="Vector" d="M41.5045 0.0100002C41.3145 0.0200002 41.1345 0.0599999 40.9645 0.12C38.4045 0.98 36.0445 2.2 33.9045 3.85C29.7845 7.03 26.9345 11.05 25.9245 16.21C25.2445 19.69 25.4445 23.1 27.0545 26.34C30.0745 32.41 36.7345 34.53 42.4445 32.11C47.7245 29.87 50.5945 24.52 49.6745 18.85C48.9245 14.24 45.1045 10.21 40.5545 9.2C39.1045 8.88 37.6445 8.81 36.0845 9.01C36.5545 5.15 38.3745 2.19 41.5045 0V0.0100002Z" fill="#00D888"/>
<path id="Vector_2" d="M18.2441 31.42C22.7641 28.67 24.8041 24.54 24.1141 19.32C23.4741 14.45 20.6041 11.2 15.9941 9.51C14.2441 8.87 12.4341 8.78 10.5141 9.01C10.9741 5.16 12.7941 2.2 15.9241 0C14.3141 0.42 12.8041 1.05 11.3841 1.87C5.0941 5.48 0.924097 10.61 0.104097 18.02C-0.235903 21.09 0.244097 24.05 1.7341 26.81C4.9341 32.76 12.4841 34.92 18.2541 31.41L18.2441 31.42Z" fill="#00D888"/>
</g>
</svg>
