<svg width="34" height="23" viewBox="0 0 34 23" fill="none" xmlns="http://www.w3.org/2000/svg">
<g id="Cpomma">
<path id="Vector" d="M5.55362 22.034C5.68014 22.0207 5.8 22.0007 5.9132 21.9608C7.6179 21.3881 9.18942 20.5757 10.6144 19.477C13.3579 17.3594 15.2557 14.6825 15.9283 11.2465C16.3811 8.92916 16.2479 6.65845 15.1758 4.50094C13.1648 0.458939 8.72995 -0.952765 4.92767 0.658708C1.41173 2.15032 -0.499392 5.71287 0.113234 9.48851C0.612657 12.5583 3.15639 15.2419 6.18622 15.9144C7.15177 16.1275 8.12398 16.1741 9.16278 16.0409C8.84981 18.6113 7.63788 20.5824 5.55362 22.0407V22.034Z" fill="#00D78B"/>
<path id="Vector_2" d="M21.0422 1.11883C18.0323 2.95005 16.6805 5.70021 17.1334 9.1762C17.5595 12.4191 19.4707 14.5833 22.5405 15.7087C23.7058 16.1348 24.911 16.1948 26.1896 16.0416C25.8833 18.6053 24.6713 20.5764 22.5871 22.0413C23.6592 21.7617 24.6647 21.3421 25.6102 20.7961C29.7987 18.3922 32.5755 14.9762 33.1216 10.0419C33.348 7.99756 33.0283 6.0265 32.0362 4.18862C29.9053 0.226528 24.8778 -1.21181 21.0355 1.12549L21.0422 1.11883Z" fill="#00D78B"/>
</g>
</svg>
