<svg width="16" height="12" viewBox="0 0 16 12" fill="none" xmlns="http://www.w3.org/2000/svg">
<g id="youtube 1" clip-path="url(#clip0_414_2131)">
<path id="Vector" d="M11.9126 0H3.7901C2.04827 0 0.631348 1.46533 0.631348 3.26667V7.93333C0.631348 9.73467 2.04827 11.2 3.7901 11.2H11.9126C13.6544 11.2 15.0713 9.73467 15.0713 7.93333V3.26667C15.0713 1.46533 13.6544 0 11.9126 0ZM14.1688 7.93333C14.1688 9.21993 13.1567 10.2667 11.9126 10.2667H3.7901C2.546 10.2667 1.53385 9.21993 1.53385 7.93333V3.26667C1.53385 1.98007 2.546 0.933333 3.7901 0.933333H11.9126C13.1567 0.933333 14.1688 1.98007 14.1688 3.26667V7.93333Z" fill="white"/>
<path id="Vector_2" d="M10.2909 5.17346L6.22967 3.30679C6.16097 3.27523 6.08572 3.26191 6.01077 3.26806C5.93583 3.27421 5.86355 3.29963 5.80052 3.34201C5.73749 3.38438 5.68569 3.44238 5.64984 3.51072C5.61398 3.57906 5.59521 3.65558 5.59522 3.73333V7.46666C5.59509 7.54446 5.61379 7.62105 5.64961 7.68945C5.68544 7.75786 5.73725 7.81591 5.80031 7.85831C5.86338 7.90071 5.93571 7.92611 6.01071 7.93221C6.0857 7.9383 6.16097 7.92489 6.22967 7.89319L10.2909 6.02653C10.3706 5.98974 10.4382 5.92988 10.4857 5.85419C10.5332 5.7785 10.5584 5.69021 10.5584 5.59999C10.5584 5.50978 10.5332 5.42149 10.4857 5.3458C10.4382 5.2701 10.3706 5.21025 10.2909 5.17346ZM6.49772 6.74846V4.45153L8.99674 5.59999L6.49772 6.74846Z" fill="white"/>
</g>
<defs>
<clipPath id="clip0_414_2131">
<rect width="14.44" height="11.2" fill="white" transform="translate(0.631348)"/>
</clipPath>
</defs>
</svg>
